<?xml version="1.0" encoding="utf-8"?>
<!-- Generator: Adobe Illustrator 24.0.1, SVG Export Plug-In . SVG Version: 6.00 Build 0)  -->
<svg version="1.1" id="Layer_1" xmlns="http://www.w3.org/2000/svg" xmlns:xlink="http://www.w3.org/1999/xlink" x="0px"
     y="0px"
     viewBox="0 0 512 512" style="enable-background:new 0 0 512 512;" xml:space="preserve">
<style type="text/css">
	.st0{stroke:#FFFFFF;stroke-miterlimit:10;}
</style>
    <g>
	<g>
		<path d="M409.1,245.3c2.7,0,5.2-0.1,7.8-0.3c37.7-3.4,53.5-33.3,52.4-59.6c-1.3-28.6-22.3-57.4-59.9-57.4h-78.5
			c8-13.1,12.4-25,12.4-42.7c0-47-39.1-85.3-87.3-85.3c-48.1,0-87.3,38.3-87.3,85.3c0,17.7,4.8,29.3,13.2,42.7h-79.1
			c-37.7,0-58.8,28.8-59.9,57.4c-1.2,26.3,14.7,56.2,52.4,59.6c2.6,0.2,5.2,0.3,7.8,0.3h67.7V285L86,422.5
			c-15.9,29.2-5,65.7,24.2,81.6c0.5,0.3,1.2,0.6,1.7,0.9c30.3,15.6,67.9,4.1,84.1-25.6l58.3-108.5l48.1,105
			c10.3,22.1,32.5,36.3,57,36.2c8.7,0,17.3-1.8,25.3-5.3c14.9-6.3,26.7-18.5,32.4-33.6c5.9-15.3,5.3-32-1.9-47.7l-73.8-140.1v-40
			L409.1,245.3L409.1,245.3z M177.1,469.3c-10.6,19.4-35.5,27-55.5,16.6c-9.5-4.8-16.6-13.1-19.8-23.4c-3.1-9.8-2.1-20.5,2.7-29.5
			l3.1-5l72.3,36.2L177.1,469.3z M396.1,434.7c4.5,9.8,4.8,20.8,1.1,30.7c-3.7,9.8-11.3,17.6-21,21.7c-20.8,9.1-45.4-0.6-54.4-20.2
			l-1-2.2l72.1-36.1L396.1,434.7z M321.3,292.9l61.5,116.9l-71,35.5l-47-102.8c-1.7-3.6-5.3-6.1-9.4-6.2h-0.4
			c-3.9,0-7.6,2.1-9.4,5.7l-55.7,103.5l-71.1-35.6l71.7-116.3c1.1-1.7,1.6-3.6,1.6-5.7v-53.3c0-5.9-4.8-10.7-10.7-10.7h-78.4
			c-2,0-3.9-0.1-6-0.3c-25.5-2.2-33.6-21.5-33-37.4c0.9-17.6,13.3-36.8,38.7-36.8h99.6c3.9-0.1,7.6-2.3,9.4-6c1.8-3.6,1.5-8-1-11.3
			c-14.6-20.6-20.7-29-20.7-46.8c0-35.3,29.5-64,65.9-64s65.9,28.7,65.9,64c0,17.7-4.9,26-19.8,47.1c-3.4,4.8-2.3,11.4,2.5,14.8
			c1.8,1.3,3.9,2,6.2,2h98.6c25.5,0,37.9,19.2,38.7,37c0.7,15.8-7.5,35.1-33,37.4c-1.9,0.2-3.9,0.3-5.9,0.3h-78.5
			c-5.9,0-10.7,4.8-10.7,10.7V288C320,289.7,320.4,291.4,321.3,292.9z"/>
	</g>
</g>
    <ellipse class="st0" cx="231.3" cy="74.4" rx="15.1" ry="13.7"/>
    <ellipse class="st0" cx="280.8" cy="74.4" rx="15.1" ry="13.7"/>
    <path d="M276.2,102.3c-6.3,4.3-13,6.5-19.8,6.5s-13.4-2.2-19.8-6.5c-3.4-2.3-8.1-1.5-10.4,2c-2.3,3.4-1.5,8.1,2,10.4
	c8.9,6.1,18.4,9.1,28.2,9.1c9.8,0,19.3-3.1,28.2-9.1c3.4-2.3,4.3-7,2-10.4C284.3,100.8,279.7,99.9,276.2,102.3z"/>
    <path d="M297.7,203.3c0.2-0.4,0.4-0.7,0.6-1.1c0-0.1,0.1-0.3,0.2-0.4c0.2-0.4,0.3-0.8,0.5-1.2c0-0.1,0.1-0.3,0.2-0.5
	c0.1-0.4,0.2-0.8,0.3-1.2c0-0.2,0.1-0.3,0.1-0.5c0.1-0.4,0.1-0.8,0.2-1.2c0-0.1,0-0.3,0.1-0.4c0,0,0,0,0-0.1c0-0.4,0-0.7,0.1-1
	c0-0.2,0-0.5,0-0.7c0,0,0-0.1,0-0.1c0-0.2,0-0.5,0-0.7s0-0.6,0-0.9c0-0.3-0.1-0.5-0.1-0.9c0-0.3-0.1-0.5-0.1-0.8
	c0-0.3-0.1-0.6-0.2-0.9c0-0.2-0.1-0.5-0.2-0.7c-0.1-0.3-0.2-0.6-0.3-1c-0.1-0.2-0.1-0.4-0.2-0.6c-0.1-0.3-0.3-0.6-0.5-1
	c-0.1-0.2-0.2-0.4-0.2-0.5c-0.2-0.3-0.4-0.6-0.5-0.9c-0.1-0.2-0.2-0.3-0.3-0.5c-0.2-0.3-0.4-0.5-0.6-0.8c-0.1-0.2-0.2-0.3-0.4-0.5
	c-0.2-0.3-0.4-0.5-0.6-0.7c-0.1-0.2-0.3-0.4-0.5-0.5c-0.2-0.2-0.5-0.4-0.6-0.6c-0.2-0.2-0.4-0.3-0.5-0.5c-0.2-0.2-0.5-0.4-0.7-0.5
	c-0.2-0.1-0.4-0.3-0.6-0.5c-0.2-0.2-0.5-0.3-0.7-0.5s-0.5-0.3-0.7-0.4c-0.3-0.1-0.5-0.3-0.8-0.4c-0.2-0.1-0.5-0.2-0.6-0.3
	c-0.3-0.1-0.6-0.3-1-0.4c-0.2-0.1-0.4-0.1-0.6-0.2c-0.4-0.1-0.7-0.2-1.1-0.3c-0.2,0-0.4-0.1-0.5-0.1c-0.4-0.1-0.8-0.1-1.1-0.2
	c-0.1,0-0.3,0-0.5-0.1c0,0-0.1,0-0.1,0c-0.1,0-0.3,0-0.5,0c-0.4,0-0.8,0-1.2,0c-0.1,0-0.1,0-0.2,0h-53.6c-9.4,0-17,7.6-17,16.9
	s7.6,17,17,17h24.2l-29.8,51.6c-4.7,8.1-1.9,18.4,6.2,23.1s18.5,1.9,23.1-6.2l44.5-76.8C297.6,203.4,297.7,203.3,297.7,203.3z"/>
</svg>
